<svg width="18" height="18" viewBox="0 0 18 18" fill="none" xmlns="http://www.w3.org/2000/svg">
<path d="M16.2 17L15.9621 17.7113C16.2218 17.7981 16.5083 17.7365 16.7093 17.5505C16.9104 17.3645 16.994 17.0838 16.9276 16.8181L16.2 17ZM15.4 13.8008L14.8004 13.3503L14.5857 13.636L14.6724 13.9827L15.4 13.8008ZM13 15.9297L13.2379 15.2185L12.9172 15.1112L12.6245 15.2805L13 15.9297ZM9 16.25C4.99594 16.25 1.75 13.0041 1.75 9H0.25C0.25 13.8325 4.16751 17.75 9 17.75V16.25ZM1.75 9C1.75 4.99594 4.99594 1.75 9 1.75V0.25C4.16751 0.25 0.25 4.16751 0.25 9H1.75ZM9 1.75C13.0041 1.75 16.25 4.99594 16.25 9H17.75C17.75 4.16751 13.8325 0.25 9 0.25V1.75ZM16.25 9C16.25 10.6333 15.7108 12.1385 14.8004 13.3503L15.9996 14.2513C17.0985 12.7887 17.75 10.9693 17.75 9H16.25ZM14.6724 13.9827L15.4724 17.1819L16.9276 16.8181L16.1276 13.6188L14.6724 13.9827ZM16.4379 16.2887L13.2379 15.2185L12.7621 16.641L15.9621 17.7113L16.4379 16.2887ZM12.6245 15.2805C11.5588 15.897 10.3218 16.25 9 16.25V17.75C10.5925 17.75 12.0878 17.3239 13.3755 16.5789L12.6245 15.2805Z" fill="white"/>
</svg>
